<svg xmlns="http://www.w3.org/2000/svg" width="880" height="176" viewBox="0 0 880 176">
  <metadata><?xpacket begin="﻿" id="W5M0MpCehiHzreSzNTczkc9d"?>
<x:xmpmeta xmlns:x="adobe:ns:meta/" x:xmptk="Adobe XMP Core 5.6-c138 79.159824, 2016/09/14-01:09:01        ">
   <rdf:RDF xmlns:rdf="http://www.w3.org/1999/02/22-rdf-syntax-ns#">
      <rdf:Description rdf:about=""/>
   </rdf:RDF>
</x:xmpmeta>
                                                                                                    
                                                                                                    
                                                                                                    
                                                                                                    
                                                                                                    
                                                                                                    
                                                                                                    
                                                                                                    
                                                                                                    
                                                                                                    
                                                                                                    
                                                                                                    
                                                                                                    
                                                                                                    
                                                                                                    
                                                                                                    
                                                                                                    
                                                                                                    
                                                                                                    
                                                                                                    
                           
<?xpacket end="w"?></metadata>
<defs>
    <style>
      .cls-1 {
        fill: #999;
        fill-rule: evenodd;
      }
    </style>
  </defs>
  <path id="MB_D" class="cls-1" d="M142.313,1.984H121.288L80,134,37.69,1.984H16.916L0.647,174H14.914S27.9,25.21,28.179,18.8L72.731,154.662H87L130.048,18.8c0.383,5.952,14.267,155.2,14.267,155.2h14.517ZM270.906,82.845c18.021-3.264,31.536-17.821,31.536-39.919,0-29.13-23.026-40.942-62.072-40.942h-38.3V174H248.88c37.544,0,61.572-14.816,61.572-47.713C310.452,96.657,291.68,85.105,270.906,82.845ZM241.872,15.54c28.783,0,45.3,5.287,45.3,28.39,0,20.09-14.768,32.641-35.542,32.641h-34.54V15.54h24.779Zm7.008,144.906H217.093V90.625h36.292c23.277,0,41.549,9.548,41.549,35.664C294.934,151.9,276.662,160.446,248.88,160.446ZM526.521,1.984h-34.04V174h36.793c35.292,0,77.09-16.071,77.09-87.39C606.364,15.8,566.318,1.984,526.521,1.984Zm2,13.556c30.036,0,62.073,8.04,62.073,71.072,0,61.776-30.786,73.834-60.321,73.834H507.5V15.54h21.024Z"/>
  <path id="_3" data-name="3" class="cls-1" d="M396.372,0.009c-18.659,0-33.229,6.4-46.52,19.213l7.923,9.223c12.27-11.272,23.516-15.883,37.831-15.883,19.681,0,32.717,11.784,32.717,30.741,0,23.312-17.125,33.072-35.018,33.072h-8.179l-2.045,13.04h11.246c23,0,38.342,9.991,38.342,35.865,0,22.544-14.314,38.171-39.364,38.171-14.825,0-26.839-4.868-38.853-17.933L345,153.972c12.78,14.6,28.884,22.031,48.821,22.031,32.974,0,54.189-21.262,54.189-50.979,0-26.9-17.125-41.5-38.341-42.526,18.915-3.33,33.485-16.908,33.485-39.964C443.149,18.71,426.023.009,396.372,0.009Z"/>
  <path id="AXIS" class="cls-1" d="M771,0V109l-94,55,7,12,94-55,94,55,8-12-94-55V0"/>
</svg>
